<?xml version="1.0" standalone="no"?>
<!DOCTYPE svg PUBLIC "-//W3C//DTD SVG 20010904//EN"
 "http://www.w3.org/TR/2001/REC-SVG-20010904/DTD/svg10.dtd">
<svg version="1.0" xmlns="http://www.w3.org/2000/svg"
 width="373.000000pt" height="419.000000pt" viewBox="0 0 373.000000 419.000000"
 preserveAspectRatio="xMidYMid meet">

<g transform="translate(0.000000,419.000000) scale(0.100000,-0.100000)"
fill="#625756" stroke="none">
<path d="M1446 4083 c-4 -5 -44 -11 -89 -15 -85 -8 -98 -8 -144 -6 -77 4 -214
-40 -276 -89 -24 -20 -36 -22 -95 -17 -41 4 -77 13 -94 25 -30 21 -42 13 -53
-34 -9 -33 -57 -85 -101 -108 -39 -20 -84 -114 -82 -168 0 -20 -4 -46 -10 -57
-14 -27 -68 -68 -115 -88 -20 -8 -37 -20 -37 -25 0 -6 -15 -28 -34 -48 -18
-21 -36 -50 -39 -64 -4 -14 -18 -42 -32 -63 -14 -20 -39 -66 -55 -101 -30 -65
-30 -101 0 -120 7 -4 9 -18 5 -32 -3 -14 -1 -40 5 -59 9 -27 8 -46 -9 -105
-11 -39 -28 -80 -37 -90 -16 -18 -16 -20 -1 -37 11 -12 17 -36 17 -64 0 -38 4
-49 25 -62 23 -15 43 -35 115 -116 15 -17 32 -48 39 -70 8 -29 21 -44 44 -56
18 -9 55 -36 82 -59 103 -87 136 -98 215 -70 47 17 129 20 175 6 30 -8 71 4
192 55 17 8 60 14 96 14 59 0 68 -3 86 -26 12 -15 21 -32 21 -39 0 -28 29 -39
78 -27 56 12 107 -6 125 -45 11 -25 -6 -171 -24 -206 -16 -30 6 -77 71 -147
70 -77 130 -209 130 -289 0 -26 7 -56 16 -69 21 -30 12 -81 -22 -121 -32 -39
-67 -159 -67 -236 0 -51 4 -67 31 -106 18 -26 32 -50 32 -54 0 -4 16 -39 35
-76 20 -40 35 -84 35 -104 0 -19 5 -54 10 -77 6 -24 15 -69 21 -100 7 -41 21
-70 48 -105 21 -26 42 -59 46 -73 4 -14 21 -54 37 -90 23 -51 27 -69 19 -86
-15 -34 14 -99 50 -114 30 -13 99 -6 134 13 11 6 56 11 100 12 123 2 179 28
258 120 34 40 73 93 85 117 12 24 33 55 47 68 28 27 46 83 49 150 1 43 2 45
55 71 29 15 57 33 62 41 14 21 10 122 -6 168 -8 23 -15 49 -15 56 0 23 129
144 174 163 43 19 105 81 107 106 0 8 1 66 1 128 1 97 -2 117 -20 147 -20 31
-31 84 -30 135 0 11 -5 34 -12 51 -12 27 -10 37 24 108 28 60 58 102 134 183
53 58 113 113 132 123 85 43 215 233 283 412 17 43 15 98 -2 98 -4 0 -47 -9
-97 -21 -49 -11 -109 -24 -134 -29 -25 -5 -53 -11 -62 -15 -24 -10 -78 45 -78
80 0 28 -73 114 -122 143 -18 10 -28 25 -28 40 0 19 -4 22 -19 17 -23 -7 -35
11 -45 69 -5 25 -20 51 -47 77 -35 34 -39 43 -39 89 0 61 -18 107 -54 137 -15
14 -26 33 -26 48 0 14 -11 43 -25 64 -32 51 -76 161 -69 172 3 5 11 9 19 9 23
0 37 72 24 124 -13 50 -31 71 -54 62 -9 -3 -32 1 -52 9 -45 19 -94 19 -119 0
-25 -19 -75 -19 -121 0 -19 8 -46 15 -58 15 -29 0 -155 47 -176 66 -8 8 -33
14 -55 14 -54 0 -84 -28 -84 -79 0 -26 -7 -44 -21 -57 -20 -18 -21 -18 -69 9
-26 15 -58 27 -69 27 -13 0 -42 20 -68 45 -46 46 -56 50 -130 58 -26 3 -55 15
-73 30 -16 14 -35 27 -42 30 -14 5 -13 6 25 60 18 25 18 27 1 56 -14 24 -16
33 -6 43 19 19 14 32 -15 46 -31 14 -46 15 -57 5z m1174 -514 c0 -6 -4 -7 -10
-4 -5 3 -10 11 -10 16 0 6 5 7 10 4 6 -3 10 -11 10 -16z m-905 -849 c0 -19
-35 -26 -46 -8 -15 23 -10 29 19 26 16 -2 27 -9 27 -18z m953 -703 c4 -37 -43
-111 -64 -103 -9 3 -22 6 -30 6 -10 0 -14 13 -14 49 0 58 25 84 75 79 25 -2
31 -8 33 -31z m-214 -219 c3 -13 6 -34 6 -48 0 -14 7 -35 15 -47 9 -13 11 -24
6 -28 -16 -9 -39 36 -47 93 -7 53 8 75 20 30z m242 -290 c11 -37 12 -179 0
-175 -16 5 -24 45 -25 125 -1 70 11 94 25 50z"/>
<path d="M3384 1388 c-4 -13 -16 -35 -28 -50 -11 -15 -32 -42 -45 -59 -13 -17
-49 -43 -80 -57 -73 -35 -84 -57 -70 -145 10 -62 9 -69 -16 -119 -24 -47 -26
-60 -20 -113 13 -119 51 -160 126 -135 46 16 64 37 77 95 5 22 25 94 45 161
20 67 41 150 49 185 7 35 19 69 27 75 25 20 -18 184 -49 184 -5 0 -12 -10 -16
-22z"/>
</g>
</svg>
