<?xml version="1.0" standalone="no"?>
<!DOCTYPE svg PUBLIC "-//W3C//DTD SVG 20010904//EN"
 "http://www.w3.org/TR/2001/REC-SVG-20010904/DTD/svg10.dtd">
<svg version="1.0" xmlns="http://www.w3.org/2000/svg"
 width="466.000000pt" height="468.000000pt" viewBox="0 0 466.000000 468.000000"
 preserveAspectRatio="xMidYMid meet">

<g transform="translate(0.000000,468.000000) scale(0.100000,-0.100000)"
fill="#625756" stroke="none">
<path d="M1940 4631 c0 -5 -16 -19 -36 -30 -31 -18 -35 -26 -31 -49 4 -19 -1
-34 -15 -49 -24 -25 -19 -45 15 -68 23 -15 27 -14 70 7 40 20 46 27 47 55 0
17 6 33 13 36 9 4 9 8 -1 23 -6 11 -20 34 -29 52 -16 30 -33 43 -33 23z"/>
<path d="M1800 4620 c0 -5 7 -10 15 -10 8 0 15 5 15 10 0 6 -7 10 -15 10 -8 0
-15 -4 -15 -10z"/>
<path d="M1957 4431 c-35 -8 -86 -88 -62 -98 8 -3 15 -14 15 -24 0 -25 87 -80
120 -77 20 2 25 8 23 28 0 14 3 43 8 65 11 55 2 82 -34 100 -16 8 -33 14 -36
14 -3 -1 -19 -4 -34 -8z"/>
<path d="M1834 4404 c3 -9 6 -20 6 -25 0 -14 26 -11 39 4 13 17 -4 37 -32 37
-13 0 -17 -5 -13 -16z"/>
<path d="M2115 4296 c-16 -24 -41 -102 -52 -158 -6 -30 7 -37 26 -14 6 7 30
16 52 20 100 16 105 57 17 149 l-27 28 -16 -25z"/>
<path d="M2163 4064 c-20 -8 -56 -74 -62 -113 -5 -28 -12 -37 -29 -39 -17 -3
-21 -8 -17 -23 5 -14 3 -17 -10 -13 -9 4 -24 -1 -35 -11 -22 -20 -55 -13 -46
10 6 16 -9 21 -18 6 -3 -5 -18 -12 -33 -16 -15 -3 -33 -15 -41 -26 -7 -10 -20
-19 -28 -19 -35 0 -124 -60 -137 -92 -3 -10 -13 -18 -22 -18 -19 0 -19 -24 0
-40 38 -32 -4 -70 -76 -70 -15 0 -40 -4 -54 -10 -25 -9 -26 -13 -19 -57 5 -33
16 -56 41 -83 30 -31 35 -44 38 -98 4 -61 -8 -89 -26 -61 -12 20 -11 73 2 86
14 14 3 33 -17 33 -9 0 -23 9 -32 19 -24 28 -90 62 -97 51 -3 -5 -2 -18 4 -28
12 -23 -1 -45 -22 -36 -27 10 -20 -12 10 -34 34 -25 29 -32 -13 -20 -36 9 -48
37 -38 86 3 17 1 38 -5 49 -10 15 -10 14 -5 -9 4 -21 0 -32 -20 -49 -30 -26
-32 -48 -10 -91 14 -27 15 -38 5 -65 -7 -19 -9 -47 -6 -64 6 -28 10 -31 36
-25 21 4 31 1 35 -9 4 -8 12 -15 19 -15 15 0 31 -38 20 -48 -4 -4 -10 -2 -12
4 -2 6 -10 19 -17 30 -12 16 -18 17 -40 6 -24 -10 -26 -16 -21 -45 10 -54 -57
-154 -95 -142 -19 6 -19 6 0 25 31 31 52 81 51 119 0 20 -5 86 -11 146 -13
148 -13 144 -5 190 9 49 -8 68 -56 63 -30 -3 -33 -6 -44 -56 -7 -29 -22 -63
-34 -76 -23 -25 -27 -46 -10 -63 7 -7 8 -22 1 -46 -8 -30 -7 -38 8 -52 27 -25
45 -74 32 -87 -7 -7 -23 0 -55 26 -25 20 -47 33 -50 29 -8 -13 5 -103 14 -103
5 0 9 -8 9 -18 0 -20 -29 -57 -117 -150 -46 -47 -54 -63 -64 -115 -6 -34 -9
-93 -8 -131 2 -43 -2 -80 -10 -94 -9 -18 -9 -30 0 -56 11 -30 10 -38 -9 -68
-28 -45 -28 -82 0 -100 28 -19 18 -53 -13 -43 -17 6 -20 3 -17 -12 2 -12 14
-19 36 -21 36 -4 38 -8 17 -36 -22 -30 -19 -42 25 -83 22 -21 40 -43 40 -49 0
-16 -51 -24 -74 -12 -10 5 -37 7 -60 4 -31 -5 -48 -2 -71 14 -16 11 -43 20
-58 20 -31 0 -87 -37 -87 -58 0 -9 -7 -11 -20 -7 -15 5 -21 0 -26 -22 -3 -15
-8 -34 -10 -41 -2 -7 10 -26 26 -41 21 -18 29 -33 24 -44 -6 -16 -3 -16 37 1
57 23 86 18 110 -21 26 -43 25 -47 -18 -47 -20 0 -44 -7 -54 -16 -15 -13 -15
-18 -3 -44 8 -15 21 -31 29 -34 8 -3 15 -14 15 -25 0 -14 5 -18 19 -14 11 3
21 -2 25 -12 8 -21 -2 -38 -19 -31 -21 8 -25 -4 -10 -28 7 -11 15 -41 17 -66
3 -43 2 -44 -32 -51 -27 -6 -43 -3 -67 12 -40 25 -48 50 -28 88 14 28 14 33
-1 56 -11 17 -23 24 -34 20 -11 -3 -30 5 -48 20 -16 14 -36 25 -43 25 -8 0
-32 7 -54 15 -58 20 -72 20 -52 -3 22 -24 22 -59 0 -66 -62 -17 -83 -16 -122
3 -47 25 -103 27 -121 6 -7 -8 -27 -15 -45 -15 -19 0 -35 -6 -38 -14 -3 -8
-21 -16 -39 -18 -31 -3 -33 -5 -30 -38 4 -52 22 -80 60 -96 26 -11 38 -11 48
-3 11 9 22 8 44 -1 24 -10 36 -10 59 0 17 6 35 9 40 5 16 -9 13 -62 -5 -97 -9
-18 -13 -41 -10 -57 4 -17 3 -21 -2 -13 -7 11 -11 10 -16 -4 -8 -21 13 -123
29 -144 7 -8 21 -31 30 -50 10 -19 28 -48 41 -63 13 -16 24 -39 24 -52 0 -13
11 -36 24 -52 44 -53 72 -108 85 -166 7 -32 19 -61 26 -63 24 -10 235 76 235
96 0 5 18 15 41 21 28 9 55 29 88 66 70 78 79 98 56 123 -10 11 -23 20 -30 20
-17 0 -45 33 -45 53 0 21 -19 22 -27 2 -7 -19 -55 -45 -83 -45 -16 0 -20 6
-20 31 0 26 -3 29 -20 24 -12 -4 -20 -2 -20 4 0 6 -14 30 -30 53 -35 48 -36
81 -3 86 15 2 28 -7 45 -32 43 -63 100 -93 143 -76 15 6 25 1 41 -18 20 -25
25 -26 136 -27 l115 -1 33 -37 c18 -20 39 -37 47 -37 9 0 12 -6 9 -18 -4 -12
1 -26 14 -37 19 -18 21 -18 41 1 27 24 35 11 42 -75 3 -37 15 -90 28 -117 45
-102 57 -130 63 -151 4 -11 13 -27 22 -34 12 -10 17 -8 30 7 38 49 45 66 51
128 6 63 8 67 52 103 25 21 58 50 73 65 16 16 32 28 36 28 4 0 16 13 25 30 14
23 25 30 50 30 18 0 43 7 55 16 25 17 42 11 42 -15 0 -10 16 -38 35 -62 26
-33 35 -54 35 -81 0 -41 13 -48 41 -22 24 22 49 11 49 -21 0 -14 6 -40 14 -58
8 -20 12 -55 9 -89 -4 -51 -1 -61 27 -99 16 -23 30 -53 30 -67 0 -23 74 -111
85 -100 3 3 2 27 -1 54 -6 40 -14 56 -48 89 -78 75 -86 101 -57 178 11 28 11
28 38 10 34 -22 99 -86 105 -103 2 -8 13 -4 33 12 17 14 40 30 53 37 19 10 22
20 22 66 0 50 -3 58 -45 105 -25 28 -45 59 -45 70 0 20 54 80 72 80 7 0 20 -8
30 -17 15 -13 21 -14 27 -4 4 7 44 24 89 39 86 29 139 68 168 125 9 17 25 42
35 55 33 43 17 152 -33 224 -10 14 -8 22 12 44 14 14 34 30 45 34 19 8 19 9
-5 18 -16 6 -32 6 -43 0 -14 -7 -24 -3 -44 17 -15 14 -22 29 -17 33 100 84
122 91 108 36 -4 -15 -3 -25 2 -22 5 2 21 10 36 17 37 19 58 8 58 -28 0 -21 6
-32 20 -36 16 -5 19 -14 16 -61 -3 -55 -3 -55 23 -49 35 9 61 34 61 58 0 11
-13 41 -30 68 l-29 48 29 25 c17 14 30 31 30 38 0 24 56 70 81 68 48 -4 57 1
103 62 85 115 113 170 118 237 2 34 10 67 17 74 23 23 32 -15 29 -126 -2 -59
-1 -107 2 -107 22 1 30 19 20 41 -13 29 2 79 24 79 12 0 12 6 0 47 -8 25 -14
65 -14 87 0 23 -3 51 -6 64 -6 21 -7 21 -20 5 -7 -10 -14 -26 -14 -35 0 -10
-4 -18 -10 -18 -5 0 -10 8 -10 18 0 9 -9 28 -20 42 -19 25 -19 25 -49 7 -24
-14 -31 -15 -31 -5 0 8 -14 22 -30 32 l-30 17 62 72 c35 39 66 76 70 82 4 5
23 28 42 49 l34 39 76 -1 c45 -1 85 3 96 10 23 15 77 -1 72 -22 -2 -9 5 -11
29 -6 17 3 38 6 45 6 10 0 13 7 8 24 -8 32 60 123 99 132 28 6 61 -11 52 -26
-3 -5 -2 -15 1 -24 5 -13 12 -11 42 16 20 17 37 38 38 46 3 19 32 48 39 40 12
-11 -26 -117 -43 -123 -9 -3 -33 -27 -52 -52 -19 -26 -51 -63 -70 -82 -79 -81
-86 -105 -64 -239 11 -68 22 -111 28 -109 6 2 18 18 28 36 9 18 23 40 31 49 8
9 17 26 19 37 2 11 14 25 28 32 20 10 24 19 22 42 -2 21 2 33 15 40 15 7 18
18 15 48 -3 21 -9 41 -15 44 -6 5 -3 24 9 54 18 43 54 73 99 80 6 0 23 5 39 9
19 6 36 5 48 -3 16 -10 25 -7 59 19 21 18 39 35 39 39 0 3 25 21 56 40 41 24
63 32 84 28 17 -4 30 -2 33 6 6 17 -22 107 -33 107 -6 0 -10 7 -10 15 0 8 8
15 18 15 27 0 66 45 59 70 -7 29 12 36 29 11 9 -12 26 -21 40 -21 16 0 28 -8
35 -22 12 -25 76 -71 83 -60 2 4 7 21 11 39 4 19 14 35 26 38 10 4 24 16 30
27 9 17 6 25 -16 48 -29 31 -76 45 -87 27 -5 -8 -11 -1 -18 18 -12 31 -150
151 -220 191 -48 27 -190 41 -190 18 0 -9 4 -23 10 -33 6 -13 5 -24 -5 -37
-13 -18 -14 -18 -39 5 -29 27 -34 51 -11 51 8 0 15 5 15 10 0 15 -36 12 -50
-4 -9 -12 -32 -14 -100 -12 -48 2 -93 7 -99 10 -6 4 -11 19 -11 34 0 15 -7 38
-16 51 -16 22 -22 23 -105 19 -82 -4 -88 -3 -98 18 -5 12 -23 28 -39 35 -23
10 -30 19 -29 38 2 27 3 26 -103 55 -90 24 -130 27 -137 10 -3 -7 -14 -14 -24
-14 -21 0 -24 -11 -8 -27 6 -6 9 -21 7 -34 -3 -22 -7 -23 -63 -22 -33 1 -70
-3 -83 -10 -19 -9 -25 -7 -38 11 -18 26 -34 20 -34 -12 0 -12 -6 -31 -14 -41
-14 -19 -15 -19 -34 -2 -31 28 -48 76 -34 97 14 22 4 100 -16 123 -8 9 -25 17
-36 17 -12 0 -34 7 -50 15 -39 21 -54 13 -58 -27 -3 -32 -5 -33 -50 -36 -55
-4 -88 11 -88 38 0 16 -7 20 -32 22 -46 2 -54 1 -83 -6 -19 -5 -25 -2 -25 9 0
11 -6 14 -24 9 -16 -4 -25 -1 -29 10 -4 9 -16 16 -28 16 -17 0 -20 -4 -15 -23
6 -25 -12 -38 -76 -57 -33 -10 -36 -1 -7 26 11 10 35 35 52 54 18 19 53 55 80
80 40 38 48 52 52 92 3 36 0 52 -15 71 -11 14 -20 32 -20 40 0 28 -116 39
-126 12 -7 -18 -34 -20 -34 -2 0 7 6 19 13 26 10 10 8 15 -7 27 -11 8 -26 14
-33 14 -16 0 -17 12 0 29 10 10 7 16 -13 31 -27 21 -28 21 -47 14z"/>
<path d="M3112 3853 c-5 -10 -12 -34 -15 -54 -4 -29 -1 -41 20 -63 20 -22 28
-25 39 -15 8 6 34 12 59 13 50 3 92 29 97 60 3 19 -2 23 -74 58 -28 13 -38 10
-38 -14 0 -21 -1 -21 -28 5 -33 31 -48 34 -60 10z"/>
<path d="M3371 3767 c19 -42 95 -63 107 -29 4 12 -38 34 -91 47 -27 7 -27 6
-16 -18z"/>
<path d="M2396 3671 c-7 -11 22 -23 35 -15 5 3 9 9 9 15 0 12 -37 12 -44 0z"/>
<path d="M3185 3651 c-3 -5 -1 -12 5 -16 5 -3 10 1 10 9 0 18 -6 21 -15 7z"/>
<path d="M3193 3601 c-10 -16 -7 -20 29 -30 47 -15 55 -10 40 24 -14 30 -52
34 -69 6z"/>
<path d="M1250 3555 c0 -8 5 -15 10 -15 6 0 10 7 10 15 0 8 -4 15 -10 15 -5 0
-10 -7 -10 -15z"/>
<path d="M4262 3378 c-22 -22 -13 -38 19 -38 45 0 74 18 58 36 -14 17 -61 18
-77 2z"/>
<path d="M3836 2504 c-5 -14 -4 -15 9 -4 17 14 19 20 6 20 -5 0 -12 -7 -15
-16z"/>
<path d="M3227 1823 c-4 -23 -15 -43 -27 -51 -20 -12 -28 -52 -10 -52 6 0 10
7 10 15 0 17 45 21 55 4 5 -6 13 -3 22 10 8 12 23 21 34 21 29 0 23 29 -8 41
-16 6 -38 19 -49 30 l-21 20 -6 -38z"/>
<path d="M3192 1688 c-7 -7 -12 -27 -12 -45 0 -34 -54 -108 -71 -98 -4 3 -18
-8 -30 -25 -18 -23 -30 -30 -58 -30 -27 0 -46 -9 -77 -38 -36 -32 -41 -41 -37
-70 3 -18 9 -35 14 -38 13 -8 31 46 24 73 -3 13 -2 23 2 23 5 0 19 3 33 6 24
6 24 6 5 -9 -27 -20 -12 -33 21 -18 21 9 24 14 14 26 -7 9 -8 15 -2 15 5 0 15
-7 22 -15 15 -18 37 -20 42 -4 2 7 28 19 58 28 53 16 55 18 62 61 4 25 13 57
19 72 11 28 5 98 -9 98 -5 0 -13 -5 -20 -12z"/>
<path d="M216 1481 c-11 -4 -15 -10 -9 -14 5 -3 19 0 29 8 20 15 11 18 -20 6z"/>
<path d="M2638 1116 c-12 -28 -3 -65 12 -50 5 5 13 24 16 42 8 39 -11 44 -28
8z"/>
<path d="M2325 977 c-19 -15 -13 -37 10 -37 16 0 38 34 28 44 -9 9 -17 8 -38
-7z"/>
<path d="M2640 919 c0 -11 -5 -29 -10 -40 -8 -13 -7 -26 1 -41 7 -13 16 -36
20 -53 5 -24 7 -25 8 -7 1 26 26 29 51 7 15 -14 18 -14 23 -1 4 10 -3 17 -23
21 -44 10 -56 30 -36 60 21 31 12 75 -15 75 -13 0 -19 -7 -19 -21z"/>
<path d="M2754 735 c-2 -26 11 -34 19 -12 5 14 -2 37 -12 37 -3 0 -7 -11 -7
-25z"/>
<path d="M2686 731 c-10 -16 18 -57 37 -53 9 2 17 9 17 15 -1 16 -47 49 -54
38z"/>
<path d="M2570 675 c-11 -13 -10 -14 4 -9 9 3 16 10 16 15 0 13 -6 11 -20 -6z"/>
<path d="M1515 647 c-9 -46 -1 -70 22 -65 25 5 27 48 4 78 l-19 24 -7 -37z"/>
<path d="M2765 661 c-3 -6 -20 -14 -37 -19 -39 -10 -50 -32 -13 -25 20 4 25 1
25 -15 0 -11 7 -23 16 -26 22 -9 24 -8 24 9 0 8 5 15 11 15 14 0 7 62 -8 67
-6 2 -14 -1 -18 -6z"/>
<path d="M2480 540 c-30 -27 -60 -50 -67 -50 -7 0 -17 -9 -23 -20 -7 -13 -21
-20 -40 -20 -25 0 -30 -4 -30 -22 0 -13 7 -32 15 -42 8 -11 15 -28 15 -38 0
-21 36 -38 80 -38 16 0 32 -4 35 -10 3 -5 17 -10 31 -10 17 0 24 6 25 20 2 33
4 38 12 47 5 4 15 23 22 41 8 17 19 32 24 32 6 0 1 15 -9 34 l-20 33 22 28 21
27 -24 19 c-13 10 -26 19 -29 18 -3 0 -30 -22 -60 -49z"/>
<path d="M1950 552 c0 -5 23 -32 50 -60 28 -28 50 -58 50 -65 0 -8 7 -20 16
-27 8 -8 21 -27 28 -44 15 -36 99 -116 121 -116 10 0 15 10 15 28 0 15 5 33
11 39 16 16 3 47 -17 39 -17 -6 -53 29 -54 52 0 15 -50 61 -65 62 -6 0 -31 20
-56 43 -42 41 -99 69 -99 49z"/>
<path d="M2837 431 c3 -12 10 -21 15 -21 13 0 6 32 -9 37 -7 3 -9 -3 -6 -16z"/>
<path d="M2639 427 c-21 -16 -40 -95 -32 -140 8 -49 23 -58 23 -13 0 42 17 56
29 24 10 -26 38 -54 47 -45 3 3 -4 25 -16 48 l-20 44 22 17 c23 18 23 18 -19
12 -39 -6 -43 -5 -43 14 0 25 27 35 73 27 25 -5 37 -2 48 11 13 16 12 17 -6 9
-25 -10 -44 -11 -70 -2 -11 3 -27 1 -36 -6z"/>
<path d="M2946 379 c-17 -11 -17 -12 5 -28 13 -9 24 -22 25 -28 2 -29 5 -33
24 -33 10 0 44 -9 74 -21 58 -21 73 -41 62 -84 -6 -23 -4 -24 24 -19 19 4 30
2 30 -5 0 -6 5 -11 11 -11 11 0 11 150 0 169 -4 6 -25 17 -48 25 -39 14 -41
13 -67 -11 -37 -34 -55 -24 -81 43 -3 9 -44 11 -59 3z"/>
<path d="M2855 310 c-3 -5 -1 -10 4 -10 6 0 11 5 11 10 0 6 -2 10 -4 10 -3 0
-8 -4 -11 -10z"/>
<path d="M2235 221 c-3 -6 4 -15 15 -21 22 -12 180 -40 220 -39 l25 0 -25 12
c-14 6 -28 16 -32 21 -3 5 -32 10 -65 10 -32 1 -68 7 -80 14 -26 14 -50 15
-58 3z"/>
<path d="M2532 150 c10 -6 25 -7 40 -1 20 9 18 10 -17 10 -31 0 -36 -2 -23 -9z"/>
<path d="M2744 136 c-31 -23 -11 -27 31 -6 35 18 36 20 14 20 -14 0 -34 -6
-45 -14z"/>
<path d="M2615 120 c3 -5 11 -10 16 -10 6 0 7 5 4 10 -3 6 -11 10 -16 10 -6 0
-7 -4 -4 -10z"/>
</g>
</svg>
