<?xml version="1.0" standalone="no"?>
<!DOCTYPE svg PUBLIC "-//W3C//DTD SVG 20010904//EN"
 "http://www.w3.org/TR/2001/REC-SVG-20010904/DTD/svg10.dtd">
<svg version="1.0" xmlns="http://www.w3.org/2000/svg"
 width="249.000000pt" height="310.000000pt" viewBox="0 0 249.000000 310.000000"
 preserveAspectRatio="xMidYMid meet">

<g transform="translate(0.000000,310.000000) scale(0.100000,-0.100000)"
fill="#625756" stroke="none">
<path d="M2177 3093 c-4 -3 -7 -10 -7 -14 0 -11 29 -19 35 -10 6 11 -20 33
-28 24z"/>
<path d="M2342 3000 c-12 -16 -30 -29 -40 -29 -56 -1 -67 -7 -70 -39 -3 -29 0
-32 23 -32 17 0 31 9 43 28 12 19 24 26 40 24 31 -5 54 16 50 46 -4 35 -19 36
-46 2z"/>
<path d="M2150 3009 c0 -7 -9 -9 -26 -5 -22 6 -25 4 -19 -14 4 -13 2 -20 -6
-20 -10 0 -10 -3 -1 -12 10 -10 17 -10 31 -1 14 9 21 9 30 0 10 -9 16 -8 26 7
16 21 13 31 -16 46 -14 8 -19 7 -19 -1z"/>
<path d="M1965 2969 c-4 -6 -14 -8 -23 -4 -13 5 -54 -10 -91 -33 -3 -1 4 -9
15 -16 12 -9 23 -11 29 -5 15 15 25 11 25 -10 0 -11 -7 -21 -15 -23 -13 -2
-12 -6 5 -21 20 -17 21 -16 32 8 6 14 17 25 25 25 7 0 13 7 13 15 0 8 6 15 14
15 7 0 18 6 24 13 9 10 6 17 -8 30 -23 20 -36 21 -45 6z"/>
<path d="M1174 2895 c3 -10 -1 -15 -13 -15 -21 0 -36 -26 -21 -35 12 -8 12
-16 1 -34 -8 -12 -13 -12 -35 2 -25 17 -25 17 -32 -18 -5 -31 -8 -33 -18 -19
-18 23 -94 26 -107 3 -14 -26 -11 -56 7 -73 16 -16 11 -56 -7 -56 -13 0 -11
-34 3 -48 7 -7 20 -12 29 -12 9 0 20 -7 23 -16 5 -13 9 -14 21 -4 8 7 15 21
15 31 0 23 7 24 28 3 15 -15 14 -19 -16 -45 -31 -28 -43 -59 -22 -59 6 0 8
-10 4 -24 -4 -17 4 -36 28 -69 18 -25 36 -46 40 -46 4 -1 10 22 14 49 4 28 11
53 15 56 5 3 9 18 9 34 0 16 5 32 10 35 6 3 10 19 10 34 0 24 25 62 33 50 13
-21 24 -75 23 -108 -2 -33 1 -41 15 -41 10 0 20 -6 23 -12 3 -9 14 -3 31 17
25 30 25 30 5 44 -11 7 -20 22 -20 32 0 11 -7 19 -16 19 -12 0 -15 6 -11 21 3
12 0 22 -9 26 -8 3 -14 13 -14 23 0 10 -7 21 -16 24 -9 4 -14 9 -10 13 3 3 -4
11 -17 17 -13 7 -23 23 -25 39 -2 15 -8 27 -13 27 -5 0 -9 6 -9 14 0 10 11 14
35 13 22 -1 35 -6 35 -15 0 -7 -4 -10 -10 -7 -5 3 -10 2 -10 -4 0 -13 33 -31
56 -31 9 0 22 -7 28 -16 11 -14 15 -14 44 3 17 10 32 25 32 33 0 8 7 24 15 34
8 11 15 32 15 47 0 22 -6 28 -32 34 -18 5 -41 8 -50 7 -10 -1 -18 7 -21 21
l-4 22 -8 -22 c-9 -28 -41 -30 -55 -3 -12 23 -35 27 -26 5z"/>
<path d="M2158 2891 c-27 -26 -24 -55 5 -47 12 3 25 6 30 6 4 0 7 6 7 14 0 8
6 17 13 19 9 4 8 8 -3 16 -21 15 -32 13 -52 -8z"/>
<path d="M1510 2855 c-14 -8 -20 -14 -14 -15 5 0 19 7 30 15 24 18 16 19 -16
0z"/>
<path d="M2428 2394 c-16 -8 -28 -20 -28 -27 -1 -22 -53 -51 -89 -50 -19 1
-40 -4 -47 -10 -6 -7 -26 -23 -43 -37 -17 -14 -31 -30 -31 -37 0 -13 -39 -39
-52 -35 -5 1 -8 -18 -8 -42 0 -32 -7 -52 -24 -73 -16 -19 -22 -34 -16 -43 5
-9 0 -24 -15 -44 -13 -17 -23 -44 -23 -60 0 -16 -6 -33 -16 -38 -20 -11 -21
-48 -1 -48 8 0 15 -6 15 -14 0 -25 59 -66 95 -66 l34 0 -24 36 c-38 56 -38
106 1 189 15 33 27 65 27 72 0 7 6 14 14 17 7 3 13 12 13 20 0 36 205 206 249
206 22 0 28 71 9 88 -9 7 -21 6 -40 -4z"/>
<path d="M1330 1800 c0 -6 -4 -9 -9 -6 -4 3 -16 -3 -26 -14 -15 -16 -21 -18
-33 -7 -13 10 -15 9 -10 -4 7 -19 -24 -49 -49 -47 -37 3 -52 -3 -58 -22 -3
-11 -13 -20 -21 -20 -13 0 -18 -12 -15 -32 2 -13 -27 -9 -32 5 -3 7 -6 5 -6
-5 -1 -10 -8 -18 -16 -18 -8 0 -12 -6 -9 -14 3 -9 -5 -20 -23 -30 -36 -20 -23
-20 24 -1 43 18 57 10 27 -14 -12 -9 -25 -28 -29 -42 -4 -13 -13 -31 -20 -39
-6 -8 -20 -35 -29 -60 -29 -76 -41 -100 -48 -100 -4 0 -14 -13 -23 -30 -10
-19 -20 -27 -30 -24 -8 4 -15 2 -15 -3 0 -4 -20 -31 -45 -58 l-45 -49 2 -73
c2 -40 7 -73 12 -73 4 0 6 -6 3 -14 -6 -16 22 -46 42 -46 8 0 29 14 48 30 38
34 53 38 53 14 0 -10 10 -44 22 -77 l22 -59 -25 -19 c-38 -30 -67 -22 -36 10
9 11 9 14 0 18 -8 3 -11 14 -7 29 4 15 2 24 -5 24 -6 0 -11 -4 -11 -10 0 -5
-7 -10 -15 -10 -21 0 -29 -46 -15 -89 17 -51 10 -73 -25 -83 -51 -16 -75 -31
-75 -47 -1 -21 -29 -56 -57 -70 -13 -7 -23 -18 -23 -25 0 -20 -48 -48 -70 -41
-15 5 -17 2 -13 -15 5 -18 2 -21 -18 -20 -69 6 -81 -16 -24 -43 19 -9 35 -23
35 -32 0 -8 5 -15 10 -15 12 0 13 -90 1 -109 -7 -11 -26 -12 -88 -7 -107 9
-113 6 -106 -54 3 -27 0 -63 -6 -81 -8 -22 -8 -36 -1 -43 5 -5 10 -18 10 -28
0 -12 8 -18 23 -18 13 0 32 -9 42 -20 13 -14 22 -17 29 -10 5 5 24 10 41 10
39 0 98 53 90 81 -8 24 21 66 56 85 19 9 29 22 29 37 0 35 17 46 52 36 25 -7
36 -4 63 16 41 32 51 31 72 -2 24 -40 75 -93 88 -93 19 0 65 -55 65 -77 0 -23
-18 -33 -61 -33 -48 0 -39 -13 34 -48 4 -2 7 5 7 17 0 11 6 24 13 28 29 19 40
42 27 58 -10 12 -9 16 3 21 9 3 21 3 27 -1 5 -3 10 -2 10 4 0 6 -13 17 -30 26
-17 9 -30 19 -30 23 0 4 -10 12 -22 17 -13 6 -28 20 -34 33 -6 12 -19 28 -29
35 -21 16 -17 61 8 65 10 2 17 -3 17 -12 0 -9 5 -16 10 -16 6 0 28 -17 49 -37
20 -21 49 -46 64 -56 20 -13 27 -26 27 -51 0 -19 9 -43 20 -56 11 -13 20 -29
20 -37 0 -21 31 -63 46 -63 8 0 13 3 13 8 -3 20 2 32 16 32 21 0 19 16 -5 40
-23 23 -26 40 -6 40 8 0 16 7 20 15 6 18 53 20 58 3 3 -8 12 -6 29 6 14 9 29
13 32 9 4 -3 7 -1 7 5 0 7 -4 12 -9 12 -5 0 -12 9 -16 19 -6 19 39 126 68 164
15 19 37 23 37 7 0 -5 9 -10 21 -10 15 0 19 -4 15 -16 -3 -9 0 -24 7 -35 12
-17 16 -17 33 -4 28 21 48 18 97 -15 24 -16 63 -32 86 -36 23 -4 44 -11 47
-15 3 -5 15 -9 27 -9 11 0 35 -14 52 -30 29 -28 33 -29 45 -15 10 12 10 19 2
27 -7 7 -12 20 -12 30 0 10 -5 26 -11 36 -13 21 1 79 19 75 5 -1 12 10 15 24
4 20 -2 32 -23 52 -24 20 -28 30 -23 55 7 40 21 55 33 36 7 -12 10 -11 16 5 4
11 16 30 27 43 25 27 82 30 109 5 24 -21 44 -25 84 -14 21 6 36 4 48 -4 18
-14 67 -6 73 11 1 5 -15 22 -37 38 -30 22 -40 37 -40 57 0 15 5 31 10 34 21
13 10 34 -17 32 -35 -3 -46 30 -11 35 31 4 36 35 6 40 -19 2 -23 9 -22 34 1
18 12 45 24 62 20 28 22 34 10 61 -7 18 -9 38 -4 48 4 10 9 56 9 103 2 114 13
188 30 192 18 4 155 166 155 183 0 7 -5 15 -12 17 -6 2 -13 26 -14 53 -4 58
-17 73 -74 86 -24 6 -50 19 -57 29 -8 11 -18 20 -24 20 -19 0 -8 -26 21 -52
32 -28 40 -65 15 -74 -8 -4 -22 -1 -30 6 -13 10 -19 10 -33 -4 -10 -9 -30 -16
-44 -16 -15 0 -29 -7 -32 -17 -8 -20 -23 -7 -28 25 l-3 23 -22 -20 c-12 -12
-26 -21 -30 -21 -21 0 -104 -68 -112 -92 -12 -33 -31 -36 -56 -8 -19 21 -14
50 10 50 8 0 15 6 15 13 0 21 -34 47 -60 47 -18 0 -20 -3 -10 -15 7 -9 9 -26
5 -45 -4 -18 -2 -36 5 -44 6 -8 8 -26 4 -40 -7 -29 -8 -30 -34 -16 -15 8 -26
4 -55 -23 -37 -34 -37 -34 -21 -66 16 -29 15 -31 -1 -31 -10 0 -33 9 -51 20
-29 18 -33 18 -39 4 -4 -11 2 -23 16 -33 19 -15 20 -19 8 -29 -11 -10 -20 -8
-43 10 -16 12 -31 23 -32 24 -2 1 -5 25 -6 53 -2 39 -8 54 -27 70 -39 31 -17
33 56 6 77 -29 107 -27 131 10 22 34 10 79 -28 106 -16 12 -46 37 -66 55 -26
23 -47 34 -68 34 -30 0 -48 12 -56 35 -1 6 -17 9 -34 7 -38 -4 -53 14 -28 32
21 16 14 28 -31 55 -30 18 -37 18 -41 6 -8 -19 -19 -19 -38 1 -9 9 -16 11 -16
4z m-9 -411 c6 -12 7 -24 2 -28 -5 -3 -23 -28 -41 -55 -17 -27 -41 -55 -52
-63 -17 -12 -19 -21 -13 -76 7 -66 27 -106 54 -107 9 0 33 7 52 15 45 19 81
19 96 1 18 -21 -28 -47 -72 -39 -27 4 -39 1 -56 -16 -11 -11 -27 -18 -36 -15
-11 5 -13 2 -9 -10 3 -9 1 -16 -6 -16 -6 0 -8 -5 -5 -10 5 -8 11 -8 20 0 21
17 45 1 45 -31 0 -31 -26 -41 -36 -14 -16 42 -54 -8 -54 -70 0 -22 -8 -43 -20
-55 -22 -22 -40 -26 -40 -10 0 17 -30 11 -76 -16 -42 -25 -57 -25 -60 -3 -1 5
-2 11 -3 14 0 3 -11 1 -23 -6 -18 -10 -20 -9 -15 6 4 9 7 21 7 26 0 5 11 9 24
9 15 0 26 7 29 20 3 12 14 20 25 20 28 0 36 16 38 74 1 36 6 53 21 65 34 26
38 59 13 86 -19 20 -21 30 -15 75 6 44 14 59 59 104 38 39 51 61 52 84 1 17 7
38 14 47 19 23 67 19 81 -6z"/>
<path d="M1136 934 c-8 -21 -8 -24 3 -24 5 0 11 9 14 20 6 24 -8 27 -17 4z"/>
<path d="M1939 1659 c-15 -29 2 -45 30 -27 26 16 26 24 1 38 -16 8 -21 6 -31
-11z"/>
<path d="M211 1443 c-8 -8 -24 -13 -37 -10 -14 2 -27 0 -30 -5 -3 -4 -10 -6
-15 -3 -5 4 -9 0 -9 -8 0 -8 -7 -17 -15 -21 -10 -3 -15 1 -15 13 0 24 -31 52
-37 33 -3 -6 -8 -10 -12 -7 -5 2 -13 -7 -19 -20 -11 -23 -10 -24 18 -18 33 6
39 -6 15 -30 -13 -13 -13 -16 1 -21 11 -4 15 -14 12 -31 -4 -19 -1 -25 13 -25
10 0 20 -4 24 -9 3 -5 19 -12 35 -16 24 -5 38 -1 69 24 21 17 44 31 50 31 5 0
15 9 21 19 12 24 13 61 1 61 -5 0 -12 12 -15 26 -4 15 -10 24 -13 20 -3 -3
-11 -2 -17 3 -7 6 -16 3 -25 -6z"/>
<path d="M465 1180 c3 -5 8 -10 11 -10 2 0 4 5 4 10 0 6 -5 10 -11 10 -5 0 -7
-4 -4 -10z"/>
<path d="M520 965 c0 -8 -9 -19 -21 -25 -15 -9 -18 -15 -10 -24 6 -7 9 -27 7
-44 -2 -18 1 -32 5 -32 5 0 9 -7 9 -15 0 -11 -9 -15 -28 -13 -33 2 -52 -8 -52
-28 0 -8 -7 -14 -16 -14 -13 0 -15 -7 -11 -32 2 -18 0 -41 -5 -51 -5 -10 -7
-25 -4 -32 4 -12 13 -12 51 2 43 17 45 19 45 58 0 22 6 47 13 56 16 21 69 34
66 17 -1 -7 2 -22 6 -32 6 -14 3 -23 -11 -33 -10 -8 -18 -21 -16 -29 2 -9 -5
-22 -15 -30 -17 -13 -17 -13 5 -14 23 0 30 -14 12 -25 -5 -3 -15 -15 -20 -25
-9 -17 -8 -19 7 -13 10 3 23 9 28 12 6 3 29 6 53 7 56 3 75 11 68 29 -3 8 -1
17 4 20 16 10 12 45 -5 52 -9 3 -23 20 -31 37 -31 65 -51 98 -62 105 -10 6 -9
16 2 43 17 41 14 48 -20 42 -24 -4 -33 9 -14 21 18 11 10 25 -15 25 -15 0 -25
-6 -25 -15z"/>
<path d="M477 963 c-4 -3 -7 -11 -7 -17 0 -6 5 -5 12 2 6 6 9 14 7 17 -3 3 -9
2 -12 -2z"/>
<path d="M890 264 c0 -14 4 -23 10 -19 6 3 10 15 10 26 0 10 -4 19 -10 19 -5
0 -10 -12 -10 -26z"/>
<path d="M887 223 c-4 -3 -7 -22 -7 -40 0 -47 24 -38 28 10 3 34 -5 46 -21 30z"/>
<path d="M1295 20 c11 -5 29 -9 40 -9 17 -1 17 1 5 9 -8 5 -26 9 -40 9 -23 0
-23 -1 -5 -9z"/>
</g>
</svg>
