<?xml version="1.0" standalone="no"?>
<!DOCTYPE svg PUBLIC "-//W3C//DTD SVG 20010904//EN"
 "http://www.w3.org/TR/2001/REC-SVG-20010904/DTD/svg10.dtd">
<svg version="1.0" xmlns="http://www.w3.org/2000/svg"
 width="595.000000pt" height="430.000000pt" viewBox="0 0 595.000000 430.000000"
 preserveAspectRatio="xMidYMid meet">

<g transform="translate(0.000000,430.000000) scale(0.100000,-0.100000)"
fill="#625756" stroke="none">
<path d="M2257 3848 c3 -123 9 -234 13 -248 5 -21 14 -26 59 -32 58 -9 91 2
91 31 0 26 34 66 69 81 51 21 113 -11 201 -103 73 -76 77 -79 145 -93 135 -27
145 -28 145 -10 0 9 -4 16 -9 16 -9 0 -125 88 -149 112 -7 7 -32 37 -57 65
-43 52 -49 76 -19 87 8 3 14 14 14 26 0 15 -16 27 -64 49 -45 20 -69 38 -79
58 -23 43 -120 105 -231 146 -150 56 -137 75 -129 -185z"/>
<path d="M3033 4046 c15 -14 35 -26 44 -26 19 0 19 0 -32 29 l-40 23 28 -26z"/>
<path d="M3123 3968 c15 -36 37 -49 37 -20 0 18 -28 52 -43 52 -4 0 -1 -14 6
-32z"/>
<path d="M3048 3925 c-16 -36 -74 -71 -93 -55 -10 9 -21 8 -44 -4 -16 -9 -44
-16 -61 -16 -36 0 -39 -12 -7 -32 34 -23 92 -30 139 -17 57 15 118 76 118 118
0 24 -4 31 -20 31 -12 0 -25 -10 -32 -25z"/>
<path d="M3290 3844 c0 -21 46 -84 62 -84 26 0 22 14 -13 55 -28 32 -49 44
-49 29z"/>
<path d="M3439 3739 c13 -11 26 -17 29 -14 8 8 -20 35 -37 35 -12 -1 -11 -5 8
-21z"/>
<path d="M3580 3682 c0 -10 60 -45 66 -39 5 5 -49 47 -60 47 -3 0 -6 -4 -6 -8z"/>
<path d="M3470 3651 c38 -33 52 -39 44 -18 -3 8 -22 21 -42 31 l-37 17 35 -30z"/>
<path d="M3740 3604 c0 -7 9 -22 20 -35 10 -13 19 -19 20 -13 0 7 -9 22 -20
35 -10 13 -19 19 -20 13z"/>
<path d="M3664 3555 c-16 -13 -17 -16 -4 -25 18 -12 70 -13 70 -2 0 9 -33 42
-41 42 -3 0 -14 -7 -25 -15z"/>
<path d="M2982 3520 c7 -11 16 -20 21 -20 4 0 3 9 -3 20 -6 11 -15 20 -20 20
-6 0 -5 -9 2 -20z"/>
<path d="M3802 3468 c5 -15 28 -23 28 -10 0 5 -7 13 -16 16 -10 4 -14 1 -12
-6z"/>
<path d="M2316 3373 c-26 -53 -30 -72 -36 -203 -8 -155 -26 -231 -63 -263 -27
-23 -71 -16 -107 17 -14 13 -44 34 -68 47 -24 13 -62 34 -84 46 -22 12 -58 38
-80 58 -31 29 -37 41 -32 58 4 12 10 37 14 54 4 18 20 46 34 64 14 17 26 42
26 55 0 26 1 26 -95 25 -45 0 -157 29 -203 53 -17 9 -39 16 -49 16 -15 -1 -14
-4 6 -21 36 -29 18 -52 -46 -60 -68 -9 -90 -23 -114 -75 -12 -24 -25 -47 -30
-50 -5 -3 -9 -20 -9 -39 0 -19 -3 -36 -7 -38 -5 -3 -29 -2 -55 2 -34 6 -55 16
-76 39 -18 19 -40 32 -54 32 -63 -1 -153 -73 -184 -146 -10 -24 -21 -33 -41
-36 -23 -2 -29 -8 -31 -35 -3 -34 -25 -45 -36 -18 -15 41 -66 -6 -66 -63 0
-36 -49 -118 -91 -150 -21 -17 -74 -35 -226 -76 -23 -7 -45 -15 -49 -19 -4 -4
-22 -7 -40 -7 -19 0 -44 -9 -61 -23 -57 -47 -122 -87 -142 -87 -22 0 -27 -12
-35 -90 -3 -25 -8 -61 -11 -80 -5 -26 0 -50 19 -93 32 -72 32 -81 2 -73 -17 4
-26 1 -30 -10 -9 -24 -8 -31 18 -61 12 -15 31 -53 41 -83 10 -30 26 -72 36
-92 10 -20 21 -58 25 -85 3 -26 19 -79 35 -118 38 -92 40 -165 4 -217 -14 -20
-25 -41 -25 -46 0 -16 63 -74 97 -88 17 -8 52 -15 76 -15 45 -2 95 22 168 80
27 21 42 24 164 29 l134 5 25 37 c33 50 153 110 220 110 25 0 76 12 113 26 96
36 198 43 255 17 23 -11 65 -28 92 -38 27 -10 55 -25 63 -34 69 -80 93 -116
99 -149 14 -76 42 -94 68 -44 19 35 123 138 132 129 4 -3 -1 -24 -10 -47 -9
-22 -16 -51 -16 -64 0 -13 -7 -29 -15 -36 -18 -15 -20 -40 -2 -40 20 0 35 14
46 43 7 18 15 25 26 20 12 -4 16 -17 14 -52 -3 -42 -1 -46 21 -47 32 -2 68
-45 75 -92 15 -88 33 -119 88 -146 28 -14 57 -26 64 -26 8 0 41 -11 74 -25
l60 -26 44 26 44 26 43 -20 c24 -11 53 -27 64 -36 21 -15 25 -14 80 35 58 51
66 54 138 64 58 8 74 28 81 104 4 37 20 96 35 132 15 36 38 93 50 127 12 34
38 80 57 102 43 51 69 110 82 186 6 33 15 87 21 120 14 87 12 170 -6 213 -12
29 -14 55 -9 116 6 71 5 78 -10 72 -12 -4 -38 15 -91 68 -59 60 -74 81 -74
105 0 34 -30 61 -67 61 -16 0 -24 8 -29 28 -9 35 -52 122 -72 145 -9 10 -44
34 -78 53 -80 45 -90 58 -109 138 -9 37 -22 78 -30 90 -8 13 -20 49 -26 82
-12 66 -37 100 -83 112 -28 7 -34 16 -64 103 -18 52 -38 111 -44 132 -6 20
-16 37 -22 37 -7 0 -25 -26 -40 -57z"/>
<path d="M1432 3384 c-13 -9 -10 -13 17 -22 38 -13 61 -6 61 18 0 13 -8 17
-31 16 -18 -1 -39 -6 -47 -12z"/>
<path d="M3165 3390 c3 -5 8 -10 11 -10 2 0 4 5 4 10 0 6 -5 10 -11 10 -5 0
-7 -4 -4 -10z"/>
<path d="M5719 3206 c7 -9 25 -16 40 -16 29 1 17 11 -29 25 -22 7 -23 6 -11
-9z"/>
<path d="M1905 3190 c-4 -6 -3 -16 3 -22 13 -13 23 4 13 21 -7 10 -10 10 -16
1z"/>
<path d="M4162 3094 c1 -9 9 -19 16 -22 9 -3 13 2 10 14 -1 9 -9 19 -16 22 -9
3 -13 -2 -10 -14z"/>
<path d="M4260 3074 c0 -8 5 -12 10 -9 6 3 10 10 10 16 0 5 -4 9 -10 9 -5 0
-10 -7 -10 -16z"/>
<path d="M4210 3010 c0 -5 5 -10 10 -10 6 0 10 5 10 10 0 6 -4 10 -10 10 -5 0
-10 -4 -10 -10z"/>
<path d="M5083 2988 c-30 -14 -29 -28 1 -28 35 0 56 10 56 26 0 16 -26 17 -57
2z"/>
<path d="M4971 2896 c-22 -26 -6 -48 31 -44 28 2 33 7 33 28 0 19 -6 26 -26
28 -14 2 -31 -4 -38 -12z"/>
<path d="M3984 2643 c25 -49 143 -137 174 -131 15 3 15 5 -3 20 -11 9 -49 44
-84 77 -71 67 -113 83 -87 34z"/>
<path d="M4630 1405 c0 -8 56 -111 106 -195 39 -65 44 -80 39 -113 -6 -45 -41
-117 -55 -117 -6 0 -10 -10 -9 -22 0 -15 15 -34 42 -54 44 -32 44 -32 35 -124
-3 -31 0 -35 23 -38 20 -2 33 5 54 30 36 43 75 125 75 161 0 23 7 31 36 43 61
26 88 135 35 142 -13 2 -28 -1 -34 -7 -33 -33 -120 12 -132 69 -7 31 -20 39
-27 18 -8 -24 -37 2 -48 44 -19 71 -43 111 -85 140 -39 27 -55 33 -55 23z"/>
<path d="M1931 1311 c-20 -13 -4 -31 29 -31 16 0 32 5 36 11 7 12 -13 29 -36
29 -8 0 -21 -4 -29 -9z"/>
<path d="M2770 888 c0 -7 5 -20 10 -28 8 -12 10 -11 10 7 0 12 -4 25 -10 28
-5 3 -10 0 -10 -7z"/>
<path d="M4586 799 c-9 -13 -16 -29 -16 -35 0 -7 -11 -26 -24 -42 -14 -16 -32
-48 -40 -72 -8 -24 -28 -54 -43 -66 -15 -12 -44 -36 -63 -54 -19 -17 -48 -38
-65 -45 -34 -15 -61 -40 -114 -108 -36 -46 -69 -123 -57 -134 6 -7 92 -39 147
-55 28 -9 44 -8 66 1 67 28 103 81 132 196 14 56 30 73 76 89 34 12 41 19 46
48 3 18 26 64 53 102 40 59 47 76 44 110 -3 40 -4 41 -40 41 -24 0 -44 8 -61
23 l-25 23 -16 -22z"/>
<path d="M2535 791 c-12 -37 47 -213 84 -250 37 -37 62 -27 122 46 53 66 54
67 53 131 -1 35 -6 68 -12 74 -7 7 -30 5 -73 -6 -59 -15 -64 -15 -107 4 -55
25 -59 25 -67 1z"/>
<path d="M5420 480 c0 -5 5 -10 10 -10 6 0 10 5 10 10 0 6 -4 10 -10 10 -5 0
-10 -4 -10 -10z"/>
<path d="M4245 139 c-4 -6 -5 -13 -2 -16 7 -7 27 6 27 18 0 12 -17 12 -25 -2z"/>
</g>
</svg>
