<?xml version="1.0" standalone="no"?>
<!DOCTYPE svg PUBLIC "-//W3C//DTD SVG 20010904//EN"
 "http://www.w3.org/TR/2001/REC-SVG-20010904/DTD/svg10.dtd">
<svg version="1.0" xmlns="http://www.w3.org/2000/svg"
 width="298.000000pt" height="453.000000pt" viewBox="0 0 298.000000 453.000000"
 preserveAspectRatio="xMidYMid meet">

<g transform="translate(0.000000,453.000000) scale(0.100000,-0.100000)"
fill="#625756" stroke="none">
<path d="M860 4370 c-13 -11 -35 -23 -49 -26 -69 -15 -116 -41 -121 -66 -3
-15 -21 -44 -41 -65 -19 -21 -35 -41 -35 -45 1 -4 -8 -13 -18 -21 -17 -13 -18
-19 -9 -58 6 -24 10 -64 9 -89 0 -25 2 -50 7 -56 9 -14 -23 -74 -40 -74 -6 0
-23 -20 -37 -44 -14 -24 -35 -46 -46 -49 -11 -3 -20 -12 -20 -21 0 -9 -9 -35
-21 -57 -26 -52 -22 -93 9 -97 33 -5 27 -33 -14 -66 -37 -29 -37 -30 -22 -99
2 -9 18 -32 34 -50 45 -49 82 -107 100 -160 9 -26 20 -49 25 -53 5 -3 9 -16 9
-29 0 -13 4 -26 9 -30 18 -10 63 -100 65 -129 3 -36 53 -80 154 -134 42 -22
94 -59 115 -80 l39 -39 1 -104 c2 -124 -17 -327 -39 -425 -21 -86 -25 -130
-28 -269 -2 -89 -8 -125 -30 -190 -33 -95 -31 -91 -56 -133 -18 -30 -19 -39
-9 -102 8 -55 8 -74 -4 -97 -8 -15 -17 -62 -20 -103 -4 -41 -9 -90 -13 -109
-6 -26 -4 -33 7 -29 9 3 15 23 17 56 2 39 8 54 22 62 34 18 42 -17 24 -107 -9
-43 -19 -98 -23 -122 -3 -25 -12 -46 -18 -49 -14 -4 -16 8 -13 78 l2 45 -23
-29 c-17 -22 -20 -32 -12 -45 7 -11 8 -23 1 -34 -5 -10 -8 -25 -6 -35 2 -9 -7
-28 -19 -42 -30 -32 -29 -35 8 -37 43 -3 46 -9 27 -43 -15 -27 -15 -28 3 -33
23 -6 26 -37 3 -37 -11 0 -14 -6 -9 -20 3 -11 3 -25 -1 -31 -9 -15 -33 27 -34
59 0 40 -17 15 -23 -34 -4 -37 -1 -51 14 -67 27 -29 35 -99 15 -138 -9 -18
-14 -34 -12 -37 8 -7 26 9 26 24 0 8 7 14 16 14 10 0 14 -6 11 -14 -3 -8 3
-26 15 -41 12 -16 17 -32 13 -43 -6 -15 -8 -14 -18 6 -13 28 -47 30 -47 2 0
-13 7 -20 20 -20 11 0 20 -4 20 -8 0 -5 11 -22 25 -38 37 -43 30 -57 -18 -33
-19 8 -20 8 -7 -3 8 -7 22 -26 30 -43 20 -40 49 -60 82 -56 22 2 28 -2 33 -22
5 -17 16 -27 36 -31 19 -4 33 -14 39 -32 7 -18 15 -24 26 -20 8 3 25 1 36 -5
15 -8 19 -8 14 0 -13 20 3 31 31 20 21 -8 29 -7 35 6 5 9 23 15 43 15 19 0 37
5 40 10 3 6 1 10 -5 10 -18 0 -126 88 -138 113 -6 12 -13 34 -16 50 -4 18 -13
27 -25 27 -23 0 -36 29 -16 36 8 3 19 3 25 -1 14 -9 13 1 -4 28 -7 12 -17 41
-20 65 -6 40 -4 46 25 73 17 16 35 29 40 29 5 0 9 16 9 35 0 28 9 43 49 82 53
52 75 103 44 103 -28 0 -83 57 -83 86 0 30 50 84 77 84 20 0 43 48 43 90 0 13
10 34 22 47 12 13 16 23 10 23 -7 0 -12 7 -12 15 0 17 16 20 25 5 11 -18 35
-11 35 10 0 16 -5 19 -23 15 -32 -8 -48 13 -50 67 -2 45 -1 46 49 27 17 -7 42
-9 56 -6 26 7 35 33 41 120 2 27 4 28 69 33 37 2 88 12 113 22 40 16 52 27 78
76 l32 57 -24 18 c-16 13 -22 25 -19 39 6 23 2 31 -34 58 -18 14 -24 25 -18
34 6 10 12 11 22 4 16 -13 81 -31 132 -38 33 -4 42 -1 66 25 44 49 54 62 80
104 14 22 37 51 53 64 16 13 44 56 63 95 19 39 46 83 60 97 23 24 26 36 26 95
0 38 4 76 9 86 16 29 99 102 128 112 14 5 38 17 53 27 17 12 44 19 75 19 42 0
55 5 86 33 20 18 37 38 37 46 0 7 15 39 34 70 18 32 36 73 39 92 3 19 10 52
16 74 6 22 11 72 11 111 0 95 8 131 30 137 10 3 28 24 40 47 12 23 46 66 75
97 36 35 56 66 60 86 20 126 0 187 -64 187 -20 0 -44 13 -77 43 -64 57 -84 67
-137 67 -24 0 -67 7 -96 16 -28 8 -61 12 -71 9 -15 -5 -22 0 -29 19 -6 13 -25
31 -43 39 -18 8 -52 22 -76 32 l-43 19 -25 -27 c-32 -35 -36 -34 -28 8 5 30 4
35 -13 35 -10 0 -29 8 -43 17 -17 12 -25 13 -28 5 -5 -17 -32 -15 -32 3 0 8 7
15 15 15 22 0 30 47 12 68 -9 10 -20 37 -26 61 -12 54 -38 82 -113 121 -49 25
-72 30 -128 30 -60 0 -73 3 -96 25 -15 14 -32 25 -39 25 -7 0 -18 13 -25 30
-13 31 -68 70 -101 70 -12 0 -19 7 -19 20 0 14 -14 27 -45 42 -25 12 -45 28
-45 35 0 18 -51 17 -86 -2 -37 -19 -58 -19 -74 0 -9 11 -28 15 -63 14 -42 -2
-53 1 -65 19 -8 12 -23 22 -33 22 -10 0 -27 10 -39 22 -19 21 -20 21 -20 2 0
-21 -61 -51 -80 -39 -15 9 -12 32 5 39 8 3 15 10 15 16 0 16 -25 11 -50 -10z
m59 -102 c10 -28 4 -48 -15 -48 -17 0 -37 37 -30 56 8 22 36 17 45 -8z m-124
-3309 c0 -7 -8 -15 -17 -17 -18 -3 -25 18 -11 32 10 10 28 1 28 -15z m95 -539
c0 -5 -7 -10 -15 -10 -8 0 -18 0 -22 -1 -4 0 -9 4 -11 10 -2 6 8 11 22 11 14
0 26 -4 26 -10z m70 -30 c0 -23 4 -30 20 -30 11 0 20 -7 20 -15 0 -8 -7 -15
-16 -15 -10 0 -14 -7 -12 -22 2 -11 -3 -23 -9 -25 -8 -3 -13 4 -13 19 -1 22
-1 22 -15 5 -10 -14 -20 -17 -37 -11 -13 4 -26 7 -30 6 -5 -1 -8 2 -8 7 0 5
-3 17 -7 27 -6 17 -5 17 17 1 37 -26 47 -21 54 25 4 22 9 45 12 50 11 18 24 6
24 -22z m-40 0 c0 -9 -31 -30 -44 -30 -12 0 -6 28 7 33 20 9 37 8 37 -3z"/>
<path d="M1514 523 c-22 -3 -34 -11 -37 -25 -4 -14 -11 -19 -23 -14 -14 5 -15
4 -4 -9 9 -11 17 -12 32 -4 14 7 23 7 33 -1 11 -9 21 -6 47 12 18 12 35 24 38
26 2 2 -2 7 -10 12 -15 10 -20 10 -76 3z"/>
<path d="M1085 140 c3 -5 13 -10 21 -10 8 0 12 5 9 10 -3 6 -13 10 -21 10 -8
0 -12 -4 -9 -10z"/>
</g>
</svg>
